HIERARCHY
ROOT hip
{
  OFFSET 0 0 0
  CHANNELS 6 Xposition Yposition Zposition Zrotation Yrotation Xrotation
  JOINT abdomen
  {
    OFFSET 0 20.6881 -0.73152
    CHANNELS 3 Zrotation Xrotation Yrotation
    JOINT chest
    {
      OFFSET 0 11.7043 -0.48768
      CHANNELS 3 Zrotation Xrotation Yrotation
      JOINT neck
      {
        OFFSET 0 22.1894 -2.19456
        CHANNELS 3 Zrotation Xrotation Yrotation
        JOINT head
        {
          OFFSET -0.24384 7.07133 1.2192
          CHANNELS 3 Zrotation Xrotation Yrotation
          JOINT leftEye
          {
            OFFSET 4.14528 8.04674 8.04672
            CHANNELS 3 Zrotation Xrotation Yrotation
            End Site
            {
              OFFSET 1 0 0
            }
          }
          JOINT rightEye
          {
            OFFSET -3.6576 8.04674 8.04672
            CHANNELS 3 Zrotation Xrotation Yrotation
            End Site
            {
              OFFSET 1 0 0
            }
          }
        }
      }
      JOINT rCollar
      {
        OFFSET -2.68224 19.2634 -4.8768
        CHANNELS 3 Zrotation Xrotation Yrotation
        JOINT rShldr
        {
          OFFSET -8.77824 -1.95073 1.46304
          CHANNELS 3 Zrotation Xrotation Yrotation
          JOINT rForeArm
          {
            OFFSET -28.1742 -1.7115 0.48768
            CHANNELS 3 Zrotation Xrotation Yrotation
            JOINT rHand
            {
              OFFSET -22.5879 0.773209 7.07136
              CHANNELS 3 Zrotation Xrotation Yrotation
              JOINT rThumb1
              {
                OFFSET -1.2192 -0.487915 3.41376
                CHANNELS 3 Zrotation Xrotation Yrotation
                JOINT rThumb2
                {
                  OFFSET -3.37035 -0.52449 3.41376
                  CHANNELS 3 Zrotation Xrotation Yrotation
                  End Site
                  {
                    OFFSET -1.78271 -1.18214 1.43049
                  }
                }
              }
              JOINT rIndex1
              {
                OFFSET -7.75947 0.938293 5.60832
                CHANNELS 3 Zrotation Xrotation Yrotation
                JOINT rIndex2
                {
                  OFFSET -2.54057 -0.884171 1.56538
                  CHANNELS 3 Zrotation Xrotation Yrotation
                  End Site
                  {
                    OFFSET -1.62519 -0.234802 1.16502
                  }
                }
              }
              JOINT rMid1
              {
                OFFSET -8.24714 1.18213 3.41376
                CHANNELS 3 Zrotation Xrotation Yrotation
                JOINT rMid2
                {
                  OFFSET -3.10165 -0.590103 1.0647
                  CHANNELS 3 Zrotation Xrotation Yrotation
                  End Site
                  {
                    OFFSET -2.48547 -0.328903 0.83742
                  }
                }
              }
              JOINT rRing1
              {
                OFFSET -8.82822 0.546677 1.51678
                CHANNELS 3 Zrotation Xrotation Yrotation
                JOINT rRing2
                {
                  OFFSET -2.60934 -0.819778 -0.0198488
                  CHANNELS 3 Zrotation Xrotation Yrotation
                  End Site
                  {
                    OFFSET -2.33842 -0.294052 0.168128
                  }
                }
              }
              JOINT rPinky1
              {
                OFFSET -8.27202 -0.0477905 -0.4584
                CHANNELS 3 Zrotation Xrotation Yrotation
                JOINT rPinky2
                {
                  OFFSET -1.82734 -0.647385 -0.700984
                  CHANNELS 3 Zrotation Xrotation Yrotation
                  End Site
                  {
                    OFFSET -1.69225 -0.51767 -0.607171
                  }
                }
              }
            }
          }
        }
      }
      JOINT lCollar
      {
        OFFSET 2.68224 19.2634 -4.8768
        CHANNELS 3 Zrotation Xrotation Yrotation
        JOINT lShldr
        {
          OFFSET 8.77824 -1.95073 1.46304
          CHANNELS 3 Zrotation Xrotation Yrotation
          JOINT lForeArm
          {
            OFFSET 28.1742 -1.7115 0.48768
            CHANNELS 3 Zrotation Xrotation Yrotation
            JOINT lHand
            {
              OFFSET 22.5879 0.773209 7.07136
              CHANNELS 3 Zrotation Xrotation Yrotation
              JOINT lThumb1
              {
                OFFSET 1.2192 -0.487915 3.41376
                CHANNELS 3 Zrotation Xrotation Yrotation
                JOINT lThumb2
                {
                  OFFSET 3.37035 -0.52449 3.41376
                  CHANNELS 3 Zrotation Xrotation Yrotation
                  End Site
                  {
                    OFFSET 1.78271 -1.18214 1.43049
                  }
                }
              }
              JOINT lIndex1
              {
                OFFSET 7.75947 0.938293 5.60832
                CHANNELS 3 Zrotation Xrotation Yrotation
                JOINT lIndex2
                {
                  OFFSET 2.54057 -0.884171 1.56538
                  CHANNELS 3 Zrotation Xrotation Yrotation
                  End Site
                  {
                    OFFSET 1.62519 -0.234802 1.16502
                  }
                }
              }
              JOINT lMid1
              {
                OFFSET 8.24714 1.18213 3.41376
                CHANNELS 3 Zrotation Xrotation Yrotation
                JOINT lMid2
                {
                  OFFSET 3.10165 -0.590103 1.0647
                  CHANNELS 3 Zrotation Xrotation Yrotation
                  End Site
                  {
                    OFFSET 2.48547 -0.328903 0.83742
                  }
                }
              }
              JOINT lRing1
              {
                OFFSET 8.82822 0.546677 1.51678
                CHANNELS 3 Zrotation Xrotation Yrotation
                JOINT lRing2
                {
                  OFFSET 2.60934 -0.819778 -0.0198488
                  CHANNELS 3 Zrotation Xrotation Yrotation
                  End Site
                  {
                    OFFSET 2.33842 -0.294052 0.168128
                  }
                }
              }
              JOINT lPinky1
              {
                OFFSET 8.27202 -0.0477905 -0.4584
                CHANNELS 3 Zrotation Xrotation Yrotation
                JOINT lPinky2
                {
                  OFFSET 1.82734 -0.647385 -0.700984
                  CHANNELS 3 Zrotation Xrotation Yrotation
                  End Site
                  {
                    OFFSET 1.69225 -0.51767 -0.607171
                  }
                }
              }
            }
          }
        }
      }
    }
  }
  JOINT rButtock
  {
    OFFSET -8.77824 4.35084 1.2192
    CHANNELS 3 Zrotation Xrotation Yrotation
    JOINT rThigh
    {
      OFFSET 0 -1.70687 -2.19456
      CHANNELS 3 Zrotation Xrotation Yrotation
      JOINT rShin
      {
        OFFSET 0 -36.8199 0.73152
        CHANNELS 3 Zrotation Xrotation Yrotation
        JOINT rFoot
        {
          OFFSET 0.73152 -45.1104 -5.12064
          CHANNELS 3 Zrotation Xrotation Yrotation
          End Site
          {
            OFFSET -1.1221 -3.69964 12.103
          }
        }
      }
    }
  }
  JOINT lButtock
  {
    OFFSET 8.77824 4.35084 1.2192
    CHANNELS 3 Zrotation Xrotation Yrotation
    JOINT lThigh
    {
      OFFSET 0 -1.70687 -2.19456
      CHANNELS 3 Zrotation Xrotation Yrotation
      JOINT lShin
      {
        OFFSET 0 -36.8199 0.73152
        CHANNELS 3 Zrotation Xrotation Yrotation
        JOINT lFoot
        {
          OFFSET -0.73152 -45.1104 -5.12064
          CHANNELS 3 Zrotation Xrotation Yrotation
          End Site
          {
            OFFSET 1.1221 -3.69964 12.103
          }
        }
      }
    }
  }
}
MOTION
Frames:	8
Frame Time:	0.00833333
41.9104 66.5484 -32.0242 0.0 0.0 0.0 -2.96285 0.00183591 -0.0799148 -0.816446 0.0169083 -0.141251 -8.212e-14 0.0 -5.96354e-16 -2.47496e-13 -6.36111e-15 -2.38697e-15 -0.0 0.0 0.0 -0.0 0.0 0.0 -4.15e-14 -1.8306e-16 -2.48481e-16 -8.66523e-13 -3.89494e-15 -1.05356e-14 -1.49354e-11 4.35418e-12 -2.22639e-14 -1.71186e-10 -5.19484e-12 -1.90197e-12 -4.03758e-10 -1.82449e-12 -4.13154e-12 -6.97272e-10 -3.15193e-12 -7.11649e-12 -4.03756e-10 -1.82246e-12 -4.14744e-12 7.73091 5.47488 0.417314 -4.03758e-10 -1.82464e-12 -4.12518e-12 2.90554 0.965183 0.102902 -4.0375e-10 -1.82415e-12 -4.12677e-12 10.2786 0.731801 0.0259123 -4.03764e-10 -1.82365e-12 -4.11564e-12 2.22167 -0.733487 -0.20892 -4.15946e-14 -1.89855e-16 -5.46658e-16 -8.69784e-13 -3.99433e-15 -1.23246e-14 -1.49763e-11 -4.60644e-12 -6.36111e-15 -1.71146e-10 3.76657e-12 -1.89879e-12 -4.03755e-10 -1.82174e-12 -4.09973e-12 -6.97265e-10 -3.14557e-12 -7.07673e-12 -4.03762e-10 -1.81888e-12 -4.09019e-12 -7.73091 5.47488 -0.417314 -4.03755e-10 -1.82107e-12 -4.10292e-12 -2.90554 0.965183 -0.102902 -4.03766e-10 -1.82087e-12 -4.10848e-12 -10.2786 0.731801 -0.0259123 -4.03749e-10 -1.82007e-12 -4.122e-12 -2.22167 -0.733487 0.20892 -2.03217e-16 0.0 -3.88251e-19 -1.77288 -1.93398 0.012226 -0.00866388 -2.07864 -0.0712045 -0.476973 3.99977 0.135159 2.03217e-16 0.0 3.88251e-19 -2.72873 -9.04326 0.303252 -0.00826585 10.7976 -0.214894 0.538589 -1.76709 -0.0242179
34.6972 64.7201 -38.3689 -135.304 -86.9695 129.731 -1.88597 5.13227 -0.167588 -1.22591 -1.81069 -0.215562 1.00231 -0.108619 0.599327 -0.730918 -0.975306 0.809157 -0.0 0.0 0.0 -0.0 0.0 0.0 -4.68053e-14 6.6982e-13 8.54269e-15 13.8206 7.3021 16.0731 -9.54987 -6.40939 11.9972 0.035115 4.15872 0.578921 2.57622e-10 -7.74315e-11 3.87998e-10 4.50935e-10 -1.3798e-10 6.61258e-10 2.57626e-10 -7.74311e-11 3.87985e-10 7.73091 5.47488 0.417314 2.57622e-10 -7.74322e-11 3.88005e-10 2.90554 0.965183 0.102902 2.5763e-10 -7.7432e-11 3.88001e-10 10.2786 0.731801 0.0259123 2.57616e-10 -7.74314e-11 3.88012e-10 2.22167 -0.733487 -0.20892 -4.69092e-14 6.69815e-13 8.30586e-15 -14.7534 7.76908 -14.0562 12.4421 -9.41845 -13.6364 -0.00456365 1.49863 -0.210358 -7.73622e-10 7.12705e-12 -4.33808e-10 -1.33855e-09 1.05999e-11 -7.46599e-10 -7.73628e-10 7.1289e-12 -4.33798e-10 -7.73091 5.47488 -0.417314 -7.73623e-10 7.12695e-12 -4.33813e-10 -2.90554 0.965183 -0.102902 -7.73632e-10 7.12685e-12 -4.33816e-10 -10.2786 0.731801 -0.0259123 -7.73617e-10 7.12714e-12 -4.33826e-10 -2.22167 -0.733487 0.20892 -2.03217e-16 0.0 -3.88251e-19 -3.38663 -10.9638 -4.72966 0.159191 18.4467 0.230151 -0.925616 -4.76589 -3.365 2.03217e-16 0.0 3.88251e-19 2.0422 -15.9682 5.59229 -0.0658136 27.643 -0.480205 1.27055 -8.25474 4.7333
34.6919 64.725 -38.3386 -135.215 -86.9368 129.603 -0.728035 10.5557 -0.263435 -1.66531 -3.74193 -0.294508 2.06468 -0.222849 1.23393 -1.47375 -2.00285 1.66722 -0.0 0.0 0.0 -0.0 0.0 0.0 -5.2932e-14 1.40064e-12 1.81174e-14 24.1322 13.0856 33.7815 -16.7565 -12.2365 25.1288 -0.0200821 8.5552 1.20137 9.55883e-10 -1.65628e-10 7.94625e-10 1.6631e-09 -2.94857e-10 1.35411e-09 9.55889e-10 -1.6563e-10 7.94616e-10 7.73091 5.47488 0.417314 9.55883e-10 -1.6563e-10 7.94633e-10 2.90554 0.965183 0.102902 9.55891e-10 -1.6563e-10 7.94627e-10 10.2786 0.731801 0.0259123 9.55877e-10 -1.65629e-10 7.94637e-10 2.22167 -0.733487 -0.20892 -5.30485e-14 1.40063e-12 1.79496e-14 -26.2695 14.4036 -29.67 20.7142 -17.5645 -29.1439 0.00259574 3.08429 -0.433421 -1.17181e-09 1.56828e-11 -8.92705e-10 -2.02892e-09 2.35359e-11 -1.53635e-09 -1.17181e-09 1.56836e-11 -8.92694e-10 -7.73091 5.47488 -0.417314 -1.17181e-09 1.56819e-11 -8.92711e-10 -2.90554 0.965183 -0.102902 -1.17182e-09 1.56815e-11 -8.92711e-10 -10.2786 0.731801 -0.0259123 -1.1718e-09 1.56812e-11 -8.92718e-10 -2.22167 -0.733487 0.20892 -2.03217e-16 0.0 -3.88251e-19 -6.80696 -20.2865 -10.2045 0.0415002 40.143 0.685949 -2.591 -13.9416 -7.25559 2.03217e-16 0.0 3.88251e-19 8.58452 -23.004 11.6848 0.11992 45.4482 -0.929282 3.24647 -14.9491 9.99945
34.6921 64.7259 -38.2916 -135.491 -86.9508 129.87 0.31667 15.3929 -0.353602 -2.05914 -5.46581 -0.365523 3.01375 -0.325715 1.79801 -2.11005 -2.92358 2.43029 -0.0 0.0 0.0 -0.0 0.0 0.0 -5.74159e-14 2.00983e-12 2.6125e-14 30.4623 15.0745 50.1229 -20.9364 -15.8379 37.409 -0.151918 12.471 1.77406 1.58038e-09 -2.28645e-10 1.17226e-09 2.74735e-09 -4.07637e-10 1.99801e-09 1.58039e-09 -2.28648e-10 1.17225e-09 7.73091 5.47488 0.417314 1.58038e-09 -2.28647e-10 1.17227e-09 2.90554 0.965183 0.102902 1.58039e-09 -2.28648e-10 1.17226e-09 10.2786 0.731801 0.0259123 1.58038e-09 -2.28647e-10 1.17227e-09 2.22167 -0.733487 -0.20892 -5.75383e-14 2.00982e-12 2.60109e-14 -33.542 17.6706 -44.3612 24.3604 -21.7269 -44.1812 0.0194078 4.49564 -0.632806 -1.51336e-09 2.50246e-11 -1.29323e-09 -2.62112e-09 3.80909e-11 -2.22564e-09 -1.51336e-09 2.50245e-11 -1.29321e-09 -7.73091 5.47488 -0.417314 -1.51336e-09 2.5023e-11 -1.29323e-09 -2.90554 0.965183 -0.102902 -1.51336e-09 2.50223e-11 -1.29323e-09 -10.2786 0.731801 -0.0259123 -1.51335e-09 2.50216e-11 -1.29323e-09 -2.22167 -0.733487 0.20892 -2.03217e-16 0.0 -3.88251e-19 -11.5634 -28.1948 -15.8789 -0.64491 59.4884 1.57051 -5.21265 -21.9411 -11.1463 2.03217e-16 0.0 3.88251e-19 15.8493 -28.8331 17.7946 0.792945 61.3243 -1.77993 6.11954 -20.6415 15.0904
34.6899 64.728 -38.2583 -136.159 -86.9588 130.519 1.04307 18.7652 -0.419875 -2.32894 -6.67135 -0.415547 3.67478 -0.400309 2.18575 -2.53831 -3.57951 2.95322 -0.0 0.0 0.0 -0.0 0.0 0.0 -5.77924e-14 2.31495e-12 3.02153e-14 34.0743 14.1892 61.3269 -22.8689 -17.1201 46.2075 -0.291622 15.19 2.1868 2.02048e-09 -2.28714e-10 1.4774e-09 3.51181e-09 -4.10177e-10 2.51955e-09 2.02049e-09 -2.28717e-10 1.4774e-09 7.73091 5.47488 0.417314 2.02048e-09 -2.28716e-10 1.47741e-09 2.90554 0.965183 0.102902 2.02049e-09 -2.28716e-10 1.4774e-09 10.2786 0.731801 0.0259123 2.02047e-09 -2.28715e-10 1.47741e-09 2.22167 -0.733487 -0.20892 -5.7904e-14 2.31495e-12 3.01159e-14 -37.5298 17.9749 -54.6716 25.5267 -22.2757 -54.8846 0.0368577 5.47146 -0.771333 -1.71331e-09 3.63315e-11 -1.54781e-09 -2.96793e-09 5.66934e-11 -2.66381e-09 -1.71331e-09 3.63307e-11 -1.54779e-09 -7.73091 5.47488 -0.417314 -1.71331e-09 3.63296e-11 -1.54781e-09 -2.90554 0.965183 -0.102902 -1.71332e-09 3.63285e-11 -1.54781e-09 -10.2786 0.731801 -0.0259123 -1.71331e-09 3.63279e-11 -1.54781e-09 -2.22167 -0.733487 0.20892 -2.03217e-16 0.0 -3.88251e-19 -15.9999 -33.3446 -20.4965 -2.35924 72.9598 3.37148 -7.77057 -27.3486 -14.2426 2.03217e-16 0.0 3.88251e-19 21.7721 -32.5301 22.538 2.20772 72.3825 -3.28878 8.79637 -24.3784 18.9645
34.6691 64.7294 -38.2267 -136.514 -86.9518 130.862 1.30572 20.0869 -0.443965 -2.42079 -7.15128 -0.435019 3.93018 -0.438114 2.32687 -2.70203 -3.8552 3.1384 -0.0 0.0 0.0 -0.0 0.0 0.0 -5.18037e-14 2.16923e-12 2.84623e-14 35.4599 13.3218 65.5373 -23.4816 -17.3248 49.7089 -0.356371 16.2301 2.34885 2.20593e-09 -1.29009e-10 1.68489e-09 3.83463e-09 -2.38079e-10 2.87656e-09 2.20593e-09 -1.29012e-10 1.68488e-09 7.73091 5.47488 0.417314 2.20593e-09 -1.29011e-10 1.68489e-09 2.90554 0.965183 0.102902 2.20593e-09 -1.29011e-10 1.68489e-09 10.2786 0.731801 0.0259123 2.20592e-09 -1.2901e-10 1.6849e-09 2.22167 -0.733487 -0.20892 -5.18722e-14 2.16922e-12 2.83163e-14 -38.988 17.6403 -58.5902 25.8509 -21.9241 -59.0062 0.0446856 5.83445 -0.82304 -1.67844e-09 5.50513e-11 -1.57369e-09 -2.90789e-09 8.91448e-11 -2.70845e-09 -1.67845e-09 5.50504e-11 -1.57367e-09 -7.73091 5.47488 -0.417314 -1.67845e-09 5.505e-11 -1.57369e-09 -2.90554 0.965183 -0.102902 -1.67845e-09 5.50484e-11 -1.57368e-09 -10.2786 0.731801 -0.0259123 -1.67844e-09 5.50488e-11 -1.57369e-09 -2.22167 -0.733487 0.20892 -2.03217e-16 0.0 -3.88251e-19 -18.0266 -35.2468 -22.4745 -4.17359 78.2213 5.20817 -8.95774 -29.4104 -15.571 2.03217e-16 0.0 3.88251e-19 24.2572 -33.8664 24.4951 3.45982 76.7074 -4.57189 10.0274 -25.7793 20.6108
34.6492 64.7303 -38.1988 -136.885 -86.9421 131.225 1.23296 19.9439 -0.436 -2.38446 -7.11292 -0.432477 3.89534 -0.44954 2.29181 -2.68283 -3.86024 3.08178 -0.0 0.0 0.0 -0.0 0.0 0.0 -4.12975e-14 1.70267e-12 2.25527e-14 35.3014 13.4697 65.0358 -23.4463 -17.36 49.4169 -0.346988 16.0724 2.32427 2.20932e-09 4.14073e-11 1.82243e-09 3.84171e-09 5.77935e-11 3.11574e-09 2.20932e-09 4.14066e-11 1.82243e-09 7.73091 5.47488 0.417314 2.20932e-09 4.14067e-11 1.82244e-09 2.90554 0.965183 0.102902 2.20932e-09 4.14057e-11 1.82244e-09 10.2786 0.731801 0.0259123 2.20931e-09 4.14065e-11 1.82245e-09 2.22167 -0.733487 -0.20892 -4.13002e-14 1.70267e-12 2.23167e-14 -38.8506 17.7582 -58.0935 25.8304 -22.0128 -58.6176 0.0432638 5.75989 -0.812428 -1.47759e-09 7.88441e-11 -1.43737e-09 -2.56024e-09 1.31099e-10 -2.47399e-09 -1.4776e-09 7.88436e-11 -1.43735e-09 -7.73091 5.47488 -0.417314 -1.47759e-09 7.88438e-11 -1.43737e-09 -2.90554 0.965183 -0.102902 -1.47761e-09 7.88418e-11 -1.43736e-09 -10.2786 0.731801 -0.0259123 -1.47759e-09 7.88438e-11 -1.43737e-09 -2.22167 -0.733487 0.20892 -2.03217e-16 0.0 -3.88251e-19 -17.8115 -35.0265 -22.2185 -3.89519 77.6419 4.9271 -8.82214 -29.1742 -15.4253 2.03217e-16 0.0 3.88251e-19 23.9049 -33.704 24.2279 3.28256 76.2369 -4.39313 9.93506 -25.6352 20.515
34.6315 64.7306 -38.1724 -137.26 -86.9323 131.597 1.02799 19.2144 -0.418346 -2.29647 -6.86719 -0.421799 3.74477 -0.4461 2.18587 -2.58929 -3.77476 2.92792 -0.0 0.0 0.0 -0.0 0.0 0.0 -2.99687e-14 1.14802e-12 1.55545e-14 34.5287 14.0182 62.6479 -23.1581 -17.3365 47.6075 -0.308794 15.4465 2.22687 2.13426e-09 2.21478e-10 1.92588e-09 3.71279e-09 3.70694e-10 3.29693e-09 2.13426e-09 2.21479e-10 1.92588e-09 7.73091 5.47488 0.417314 2.13426e-09 2.21478e-10 1.92589e-09 2.90554 0.965183 0.102902 2.13426e-09 2.21477e-10 1.92589e-09 10.2786 0.731801 0.0259123 2.13425e-09 2.21478e-10 1.9259e-09 2.22167 -0.733487 -0.20892 -2.99109e-14 1.14801e-12 1.52222e-14 -38.077 18.0518 -55.8272 25.6772 -22.2861 -56.4255 0.0383118 5.51553 -0.77764 -1.26888e-09 9.7207e-11 -1.27519e-09 -2.19884e-09 1.63762e-10 -2.19502e-09 -1.2689e-09 9.72068e-11 -1.27517e-09 -7.73091 5.47488 -0.417314 -1.26888e-09 9.72079e-11 -1.27519e-09 -2.90554 0.965183 -0.102902 -1.2689e-09 9.72052e-11 -1.27518e-09 -10.2786 0.731801 -0.0259123 -1.26888e-09 9.72088e-11 -1.2752e-09 -2.22167 -0.733487 0.20892 -2.03217e-16 0.0 -3.88251e-19 -16.7062 -33.9585 -21.0783 -2.82397 74.7262 3.84319 -8.15631 -28.0191 -14.687 2.03217e-16 0.0 3.88251e-19 22.4246 -32.9456 23.0745 2.55088 73.8493 -3.64691 9.30864 -24.8762 19.7177
